<svg width="50" height="33" viewBox="0 0 50 33" fill="none" xmlns="http://www.w3.org/2000/svg">
<g id="logo" clip-path="url(#clip0_0_398)">
<g id="A">
<path id="Vector" d="M29.0107 6.47977C29.0107 6.49015 28.9993 6.50054 28.9993 6.51092L28.9084 6.6459L22.0887 17.4337L20.2814 20.289L19.1562 22.0645L17.3489 24.9197L16.4851 26.2903L14.6778 29.1456L14.3937 29.592L12.7115 32.2604H12.6774L11.0747 30.2981L10.9156 30.1112C10.8019 29.9243 10.7906 29.6855 10.8929 29.4674C10.9042 29.4467 10.9156 29.4259 10.9156 29.4155C10.927 29.3948 10.9383 29.374 10.9497 29.3532L12.3591 27.1209L12.882 26.3007L13.7458 24.9301L15.553 22.0748L16.6783 20.2994L18.4855 17.4441L27.4194 3.30261L28.9653 5.75297C29.1016 5.96063 29.1244 6.23058 29.0107 6.47977Z" fill="#F0F0F0"/>
<path id="Vector_2" d="M49.5837 32.25H46.4579C46.3443 32.25 46.242 32.2292 46.1397 32.1877C46.0033 32.1358 45.8896 32.0527 45.8101 31.9593L45.6737 31.7516L44.0028 29.1351L42.1956 26.2798L41.3318 24.9093L39.5245 22.054L38.3993 20.2786L36.6148 17.4336L29.3517 5.95019L27.8286 3.53099L27.7604 3.41677C27.6695 3.24027 27.6581 3.02223 27.7491 2.81457C27.7604 2.7938 27.7604 2.78342 27.7718 2.76265C27.7832 2.74189 27.7945 2.73151 27.8059 2.71074L29.3517 0.25L31.1476 3.09491L40.2065 17.4336L42.0137 20.2889L43.139 22.0644L44.9462 24.9197L45.8101 26.2902L47.6173 29.1455L49.5837 32.25Z" fill="#F0F0F0"/>
</g>
<g id="V">
<path id="Vector_3" d="M11.9955 27.3388C11.9727 27.3804 11.9614 27.4219 11.9273 27.4531L10.552 29.6335L0.58374 17.4336H4.06182C4.17548 17.4336 4.27778 17.4544 4.38008 17.4959C4.5051 17.5478 4.6074 17.6205 4.69833 17.7035L4.7097 17.7139L4.76653 17.7866L11.8932 26.5082C12.075 26.7366 12.1319 27.0481 11.9955 27.3388Z" fill="#F0F0F0"/>
</g>
<g id="E">
<path id="Vector_4" d="M34.0915 27.7127C34.0915 28.5018 33.3981 29.1352 32.5343 29.1352H26.0328C25.1689 29.1352 24.4756 28.5018 24.4756 27.7127C24.4756 26.9236 25.1689 26.2903 26.0328 26.2903H32.5229C33.3867 26.2799 34.0915 26.9236 34.0915 27.7127Z" fill="#F0F0F0"/>
<path id="Vector_5" d="M34.0915 18.8664C34.0915 19.6555 33.3981 20.2889 32.5343 20.2889H26.0328C25.1689 20.2889 24.4756 19.6555 24.4756 18.8664C24.4756 18.0773 25.1689 17.444 26.0328 17.444H32.5229C33.3867 17.4336 34.0915 18.0773 34.0915 18.8664Z" fill="#F0F0F0"/>
<path id="Vector_6" d="M34.0915 23.4869C34.0915 24.276 33.3981 24.9094 32.5343 24.9094H26.0328C25.1689 24.9094 24.4756 24.276 24.4756 23.4869C24.4756 22.6978 25.1689 22.0645 26.0328 22.0645H32.5229C33.3867 22.0645 34.0915 22.6978 34.0915 23.4869Z" fill="#F0F0F0"/>
</g>
</g>
<defs>
<clipPath id="clip0_0_398">
<rect width="49" height="32" fill="white" transform="translate(0.58374 0.25)"/>
</clipPath>
</defs>
</svg>
