<svg width="1011" height="601" viewBox="0 0 1011 601" fill="none" xmlns="http://www.w3.org/2000/svg">
<path d="M308.693 141.992C305.645 141.992 303.125 141.284 301.133 139.868C299.165 138.428 298.097 136.328 297.929 133.568H306.425C306.545 135.032 307.193 135.764 308.369 135.764C308.801 135.764 309.161 135.668 309.449 135.476C309.761 135.26 309.917 134.936 309.917 134.504C309.917 133.904 309.593 133.424 308.945 133.064C308.297 132.68 307.289 132.248 305.921 131.768C304.289 131.192 302.933 130.628 301.853 130.076C300.797 129.524 299.885 128.72 299.117 127.664C298.349 126.608 297.977 125.252 298.001 123.596C298.001 121.94 298.421 120.536 299.261 119.384C300.125 118.208 301.289 117.32 302.753 116.72C304.241 116.12 305.909 115.82 307.757 115.82C310.877 115.82 313.349 116.54 315.173 117.98C317.021 119.42 317.993 121.448 318.089 124.064H309.485C309.461 123.344 309.281 122.828 308.945 122.516C308.609 122.204 308.201 122.048 307.721 122.048C307.385 122.048 307.109 122.168 306.893 122.408C306.677 122.624 306.569 122.936 306.569 123.344C306.569 123.92 306.881 124.4 307.505 124.784C308.153 125.144 309.173 125.588 310.565 126.116C312.173 126.716 313.493 127.292 314.525 127.844C315.581 128.396 316.493 129.164 317.261 130.148C318.029 131.132 318.413 132.368 318.413 133.856C318.413 135.416 318.029 136.82 317.261 138.068C316.493 139.292 315.377 140.252 313.913 140.948C312.449 141.644 310.709 141.992 308.693 141.992ZM333.641 141.992C331.241 141.992 329.033 141.428 327.017 140.3C325.025 139.172 323.441 137.612 322.265 135.62C321.089 133.628 320.501 131.384 320.501 128.888C320.501 126.392 321.089 124.148 322.265 122.156C323.441 120.164 325.025 118.616 327.017 117.512C329.033 116.384 331.241 115.82 333.641 115.82C336.041 115.82 338.237 116.384 340.229 117.512C342.221 118.616 343.793 120.164 344.945 122.156C346.121 124.148 346.709 126.392 346.709 128.888C346.709 131.384 346.121 133.628 344.945 135.62C343.793 137.612 342.209 139.172 340.193 140.3C338.201 141.428 336.017 141.992 333.641 141.992ZM333.641 134.54C335.225 134.54 336.449 134.036 337.313 133.028C338.177 131.996 338.609 130.616 338.609 128.888C338.609 127.136 338.177 125.756 337.313 124.748C336.449 123.716 335.225 123.2 333.641 123.2C332.033 123.2 330.797 123.716 329.933 124.748C329.069 125.756 328.637 127.136 328.637 128.888C328.637 130.616 329.069 131.996 329.933 133.028C330.797 134.036 332.033 134.54 333.641 134.54ZM357.584 135.692H365.288V141.74H349.592V116.252H357.584V135.692ZM375.615 116.252V130.616C375.615 131.792 375.867 132.728 376.371 133.424C376.899 134.096 377.739 134.432 378.891 134.432C380.043 134.432 380.895 134.096 381.447 133.424C381.999 132.728 382.275 131.792 382.275 130.616V116.252H390.231V130.616C390.231 133.04 389.727 135.116 388.719 136.844C387.711 138.548 386.331 139.832 384.579 140.696C382.827 141.56 380.871 141.992 378.711 141.992C376.551 141.992 374.631 141.56 372.951 140.696C371.295 139.832 369.999 138.548 369.063 136.844C368.127 135.14 367.659 133.064 367.659 130.616V116.252H375.615ZM405.414 134.54C406.326 134.54 407.13 134.312 407.826 133.856C408.546 133.376 409.098 132.716 409.482 131.876H417.906C417.45 134.54 416.346 136.748 414.594 138.5C412.842 140.252 410.622 141.332 407.934 141.74H408.114V142.964C408.786 142.964 409.482 143.096 410.202 143.36C410.922 143.648 411.534 144.116 412.038 144.764C412.542 145.436 412.794 146.3 412.794 147.356C412.794 148.916 412.254 150.032 411.174 150.704C410.094 151.4 408.834 151.748 407.394 151.748H401.166V147.68H406.566C406.854 147.68 407.082 147.62 407.25 147.5C407.418 147.404 407.502 147.272 407.502 147.104C407.502 146.744 407.19 146.564 406.566 146.564H403.506V141.776C401.346 141.488 399.462 140.768 397.854 139.616C396.27 138.464 395.058 136.976 394.218 135.152C393.378 133.328 392.958 131.264 392.958 128.96C392.958 126.44 393.462 124.196 394.47 122.228C395.502 120.26 396.966 118.736 398.862 117.656C400.758 116.552 402.99 116 405.558 116C407.766 116 409.734 116.42 411.462 117.26C413.214 118.076 414.63 119.24 415.71 120.752C416.814 122.264 417.546 124.028 417.906 126.044H409.482C409.098 125.204 408.546 124.556 407.826 124.1C407.13 123.62 406.326 123.38 405.414 123.38C404.07 123.38 403.002 123.884 402.21 124.892C401.442 125.9 401.058 127.256 401.058 128.96C401.058 130.664 401.442 132.02 402.21 133.028C403.002 134.036 404.07 134.54 405.414 134.54ZM433.203 141.992C430.803 141.992 428.595 141.428 426.579 140.3C424.587 139.172 423.003 137.612 421.827 135.62C420.651 133.628 420.063 131.384 420.063 128.888C420.063 126.392 420.651 124.148 421.827 122.156C423.003 120.164 424.587 118.616 426.579 117.512C428.595 116.384 430.803 115.82 433.203 115.82C435.603 115.82 437.799 116.384 439.791 117.512C441.783 118.616 443.355 120.164 444.507 122.156C445.683 124.148 446.271 126.392 446.271 128.888C446.271 131.384 445.683 133.628 444.507 135.62C443.355 137.612 441.771 139.172 439.755 140.3C437.763 141.428 435.579 141.992 433.203 141.992ZM433.203 134.54C434.787 134.54 436.011 134.036 436.875 133.028C437.739 131.996 438.171 130.616 438.171 128.888C438.171 127.136 437.739 125.756 436.875 124.748C436.011 123.716 434.787 123.2 433.203 123.2C431.595 123.2 430.359 123.716 429.495 124.748C428.631 125.756 428.199 127.136 428.199 128.888C428.199 130.616 428.631 131.996 429.495 133.028C430.359 134.036 431.595 134.54 433.203 134.54ZM424.779 114.776C425.163 112.544 425.835 110.936 426.795 109.952C427.779 108.944 429.039 108.44 430.575 108.44C431.151 108.44 431.691 108.524 432.195 108.692C432.699 108.86 433.239 109.1 433.815 109.412C434.271 109.652 434.631 109.832 434.895 109.952C435.183 110.048 435.471 110.096 435.759 110.096C436.647 110.096 437.175 109.532 437.343 108.404H441.267C440.883 110.636 440.199 112.244 439.215 113.228C438.255 114.212 437.007 114.704 435.471 114.704C434.895 114.704 434.355 114.62 433.851 114.452C433.347 114.284 432.807 114.044 432.231 113.732C431.895 113.564 431.559 113.42 431.223 113.3C430.887 113.156 430.575 113.084 430.287 113.084C429.423 113.084 428.883 113.648 428.667 114.776H424.779ZM457.146 122.624V125.756H465.066V131.768H457.146V135.368H466.146V141.74H449.154V116.252H466.146V122.624H457.146ZM479.13 141.992C476.082 141.992 473.562 141.284 471.57 139.868C469.602 138.428 468.534 136.328 468.366 133.568H476.862C476.982 135.032 477.63 135.764 478.806 135.764C479.238 135.764 479.598 135.668 479.886 135.476C480.198 135.26 480.354 134.936 480.354 134.504C480.354 133.904 480.03 133.424 479.382 133.064C478.734 132.68 477.726 132.248 476.358 131.768C474.726 131.192 473.37 130.628 472.29 130.076C471.234 129.524 470.322 128.72 469.554 127.664C468.786 126.608 468.414 125.252 468.438 123.596C468.438 121.94 468.858 120.536 469.698 119.384C470.562 118.208 471.726 117.32 473.19 116.72C474.678 116.12 476.346 115.82 478.194 115.82C481.314 115.82 483.786 116.54 485.61 117.98C487.458 119.42 488.43 121.448 488.526 124.064H479.922C479.898 123.344 479.718 122.828 479.382 122.516C479.046 122.204 478.638 122.048 478.158 122.048C477.822 122.048 477.546 122.168 477.33 122.408C477.114 122.624 477.006 122.936 477.006 123.344C477.006 123.92 477.318 124.4 477.942 124.784C478.59 125.144 479.61 125.588 481.002 126.116C482.61 126.716 483.93 127.292 484.962 127.844C486.018 128.396 486.93 129.164 487.698 130.148C488.466 131.132 488.85 132.368 488.85 133.856C488.85 135.416 488.466 136.82 487.698 138.068C486.93 139.292 485.814 140.252 484.35 140.948C482.886 141.644 481.146 141.992 479.13 141.992ZM518.619 125C518.619 126.608 518.247 128.072 517.503 129.392C516.759 130.688 515.655 131.72 514.191 132.488C512.751 133.256 510.999 133.64 508.935 133.64H505.767V141.74H497.775V116.252H508.935C512.055 116.252 514.443 117.044 516.099 118.628C517.779 120.212 518.619 122.336 518.619 125ZM508.035 127.34C509.691 127.34 510.519 126.56 510.519 125C510.519 123.44 509.691 122.66 508.035 122.66H505.767V127.34H508.035ZM537.498 137.888H529.002L527.742 141.74H519.354L528.678 116.252H537.894L547.182 141.74H538.758L537.498 137.888ZM535.554 131.876L533.25 124.784L530.946 131.876H535.554ZM561.814 141.74L557.026 132.596H556.99V141.74H548.998V116.252H560.878C562.942 116.252 564.706 116.624 566.17 117.368C567.634 118.088 568.726 119.084 569.446 120.356C570.19 121.604 570.562 123.02 570.562 124.604C570.562 126.308 570.082 127.82 569.122 129.14C568.186 130.46 566.83 131.408 565.054 131.984L570.598 141.74H561.814ZM556.99 127.268H560.158C560.926 127.268 561.502 127.1 561.886 126.764C562.27 126.404 562.462 125.852 562.462 125.108C562.462 124.436 562.258 123.908 561.85 123.524C561.466 123.14 560.902 122.948 560.158 122.948H556.99V127.268ZM589.459 137.888H580.963L579.703 141.74H571.315L580.639 116.252H589.855L599.143 141.74H590.719L589.459 137.888ZM587.515 131.876L585.211 124.784L582.907 131.876H587.515ZM619.496 141.992C617.096 141.992 614.888 141.428 612.872 140.3C610.88 139.172 609.296 137.612 608.12 135.62C606.944 133.628 606.356 131.384 606.356 128.888C606.356 126.392 606.944 124.148 608.12 122.156C609.296 120.164 610.88 118.616 612.872 117.512C614.888 116.384 617.096 115.82 619.496 115.82C621.896 115.82 624.092 116.384 626.084 117.512C628.076 118.616 629.648 120.164 630.8 122.156C631.976 124.148 632.564 126.392 632.564 128.888C632.564 131.384 631.976 133.628 630.8 135.62C629.648 137.612 628.064 139.172 626.048 140.3C624.056 141.428 621.872 141.992 619.496 141.992ZM619.496 134.54C621.08 134.54 622.304 134.036 623.168 133.028C624.032 131.996 624.464 130.616 624.464 128.888C624.464 127.136 624.032 125.756 623.168 124.748C622.304 123.716 621.08 123.2 619.496 123.2C617.888 123.2 616.652 123.716 615.788 124.748C614.924 125.756 614.492 127.136 614.492 128.888C614.492 130.616 614.924 131.996 615.788 133.028C616.652 134.036 617.888 134.54 619.496 134.54ZM661.58 116.252V122.588H654.812V141.74H646.82V122.588H640.124V116.252H661.58ZM671.74 122.624V125.756H679.66V131.768H671.74V135.368H680.74V141.74H663.748V116.252H680.74V122.624H671.74ZM691.564 116.252V130.616C691.564 131.792 691.816 132.728 692.32 133.424C692.848 134.096 693.688 134.432 694.84 134.432C695.992 134.432 696.844 134.096 697.396 133.424C697.948 132.728 698.224 131.792 698.224 130.616V116.252H706.18V130.616C706.18 133.04 705.676 135.116 704.668 136.844C703.66 138.548 702.28 139.832 700.528 140.696C698.776 141.56 696.82 141.992 694.66 141.992C692.5 141.992 690.58 141.56 688.9 140.696C687.244 139.832 685.948 138.548 685.012 136.844C684.076 135.14 683.608 133.064 683.608 130.616V116.252H691.564Z" fill="#F0F0F0"/>
<path d="M446.387 195.74H438.395L429.935 182.924V195.74H421.943V170.252H429.935L438.395 183.284V170.252H446.387V195.74ZM457.99 176.624V179.756H465.91V185.768H457.99V189.368H466.99V195.74H449.998V170.252H466.99V176.624H457.99ZM485.626 178.964C485.314 178.46 484.87 178.076 484.294 177.812C483.718 177.524 483.022 177.38 482.206 177.38C480.67 177.38 479.482 177.884 478.642 178.892C477.802 179.876 477.382 181.232 477.382 182.96C477.382 184.952 477.85 186.44 478.786 187.424C479.722 188.408 481.162 188.9 483.106 188.9C484.954 188.9 486.442 188.156 487.57 186.668H481.198V181.016H494.194V189.008C493.09 190.904 491.566 192.536 489.622 193.904C487.678 195.248 485.218 195.92 482.242 195.92C479.602 195.92 477.298 195.38 475.33 194.3C473.386 193.196 471.886 191.66 470.83 189.692C469.798 187.724 469.282 185.48 469.282 182.96C469.282 180.44 469.798 178.196 470.83 176.228C471.886 174.26 473.386 172.736 475.33 171.656C477.274 170.552 479.554 170 482.17 170C485.506 170 488.218 170.804 490.306 172.412C492.418 174.02 493.666 176.204 494.05 178.964H485.626ZM509.492 195.992C507.092 195.992 504.884 195.428 502.868 194.3C500.876 193.172 499.292 191.612 498.116 189.62C496.94 187.628 496.352 185.384 496.352 182.888C496.352 180.392 496.94 178.148 498.116 176.156C499.292 174.164 500.876 172.616 502.868 171.512C504.884 170.384 507.092 169.82 509.492 169.82C511.892 169.82 514.088 170.384 516.08 171.512C518.072 172.616 519.644 174.164 520.796 176.156C521.972 178.148 522.56 180.392 522.56 182.888C522.56 185.384 521.972 187.628 520.796 189.62C519.644 191.612 518.06 193.172 516.044 194.3C514.052 195.428 511.868 195.992 509.492 195.992ZM509.492 188.54C511.076 188.54 512.3 188.036 513.164 187.028C514.028 185.996 514.46 184.616 514.46 182.888C514.46 181.136 514.028 179.756 513.164 178.748C512.3 177.716 511.076 177.2 509.492 177.2C507.884 177.2 506.648 177.716 505.784 178.748C504.92 179.756 504.488 181.136 504.488 182.888C504.488 184.616 504.92 185.996 505.784 187.028C506.648 188.036 507.884 188.54 509.492 188.54ZM514.1 165.392L504.776 168.776V163.448L514.1 159.488V165.392ZM524.723 182.96C524.723 180.44 525.227 178.196 526.235 176.228C527.267 174.26 528.731 172.736 530.627 171.656C532.523 170.552 534.755 170 537.323 170C539.531 170 541.499 170.42 543.227 171.26C544.979 172.076 546.395 173.24 547.475 174.752C548.579 176.264 549.311 178.028 549.671 180.044H541.247C540.863 179.204 540.311 178.556 539.591 178.1C538.895 177.62 538.091 177.38 537.179 177.38C535.835 177.38 534.767 177.884 533.975 178.892C533.207 179.9 532.823 181.256 532.823 182.96C532.823 184.664 533.207 186.02 533.975 187.028C534.767 188.036 535.835 188.54 537.179 188.54C538.091 188.54 538.895 188.312 539.591 187.856C540.311 187.376 540.863 186.716 541.247 185.876H549.671C549.311 187.892 548.579 189.656 547.475 191.168C546.395 192.68 544.979 193.856 543.227 194.696C541.499 195.512 539.531 195.92 537.323 195.92C534.755 195.92 532.523 195.38 530.627 194.3C528.731 193.196 527.267 191.66 526.235 189.692C525.227 187.724 524.723 185.48 524.723 182.96ZM560.541 170.252V195.74H552.549V170.252H560.541ZM576.57 195.992C574.17 195.992 571.962 195.428 569.946 194.3C567.954 193.172 566.37 191.612 565.194 189.62C564.018 187.628 563.43 185.384 563.43 182.888C563.43 180.392 564.018 178.148 565.194 176.156C566.37 174.164 567.954 172.616 569.946 171.512C571.962 170.384 574.17 169.82 576.57 169.82C578.97 169.82 581.166 170.384 583.158 171.512C585.15 172.616 586.722 174.164 587.874 176.156C589.05 178.148 589.638 180.392 589.638 182.888C589.638 185.384 589.05 187.628 587.874 189.62C586.722 191.612 585.138 193.172 583.122 194.3C581.13 195.428 578.946 195.992 576.57 195.992ZM576.57 188.54C578.154 188.54 579.378 188.036 580.242 187.028C581.106 185.996 581.538 184.616 581.538 182.888C581.538 181.136 581.106 179.756 580.242 178.748C579.378 177.716 578.154 177.2 576.57 177.2C574.962 177.2 573.726 177.716 572.862 178.748C571.998 179.756 571.566 181.136 571.566 182.888C571.566 184.616 571.998 185.996 572.862 187.028C573.726 188.036 574.962 188.54 576.57 188.54Z" fill="#1E999F"/>
<rect x="224.165" y="295.203" width="2.1638" height="12.9828" transform="rotate(-10.0946 224.165 295.203)" fill="url(#paint0_linear_0_449)"/>
<rect x="224.413" y="281.971" width="2.1638" height="25.9657" transform="rotate(-10.0946 224.413 281.971)" fill="url(#paint1_linear_0_449)"/>
<rect x="229.213" y="294.304" width="2.1638" height="12.9828" transform="rotate(-10.0946 229.213 294.304)" fill="#6D28A1"/>
<rect x="232.496" y="298.115" width="2.1638" height="8.65522" transform="rotate(-10.0946 232.496 298.115)" fill="#ED0349"/>
<rect x="233.503" y="289.144" width="2.1638" height="17.3104" transform="rotate(-10.0946 233.503 289.144)" fill="#ED9D03"/>
<rect x="237.544" y="297.216" width="2.1638" height="8.65522" transform="rotate(-10.0946 237.544 297.216)" fill="#ECD8DE"/>
<g clip-path="url(#clip0_0_449)">
<g filter="url(#filter0_d_0_449)">
<path d="M526.991 261.275C526.991 261.331 526.929 261.387 526.929 261.443L526.43 262.169L488.99 320.242L479.069 335.612L472.892 345.17L462.97 360.54L458.228 367.918L448.306 383.289L446.746 385.692L437.511 400.056H437.324L428.526 389.493L427.652 388.487C427.028 387.48 426.966 386.195 427.528 385.021C427.59 384.909 427.652 384.798 427.652 384.742C427.715 384.63 427.777 384.518 427.84 384.406L435.577 372.389L438.447 367.974L443.19 360.596L453.111 345.226L459.289 335.668L469.21 320.298L518.255 244.172L526.742 257.363C527.49 258.48 527.615 259.934 526.991 261.275Z" fill="url(#paint2_linear_0_449)"/>
</g>
<g filter="url(#filter1_d_0_449)">
<path d="M639.932 400H622.773C622.149 400 621.587 399.888 621.025 399.665C620.277 399.385 619.653 398.938 619.216 398.435L618.467 397.317L609.295 383.232L599.373 367.862L594.631 360.484L584.709 345.114L578.532 335.556L568.735 320.242L528.863 258.425L520.501 245.402L520.127 244.787C519.628 243.837 519.565 242.663 520.064 241.545C520.127 241.433 520.127 241.377 520.189 241.266C520.252 241.154 520.314 241.098 520.376 240.986L528.863 227.74L538.722 243.054L588.453 320.242L598.375 335.612L604.552 345.17L614.474 360.54L619.216 367.918L629.137 383.288L639.932 400Z" fill="url(#paint3_linear_0_449)"/>
</g>
<g filter="url(#filter2_d_0_449)">
<path d="M554.882 375.574C554.882 379.822 551.076 383.232 546.334 383.232H510.642C505.899 383.232 502.093 379.822 502.093 375.574C502.093 371.326 505.899 367.917 510.642 367.917H546.271C551.013 367.861 554.882 371.326 554.882 375.574Z" fill="#E06881"/>
</g>
<g filter="url(#filter3_d_0_449)">
<path d="M433.58 373.563C433.455 373.786 433.393 374.01 433.206 374.177L425.655 385.915L370.932 320.241H390.026C390.65 320.241 391.212 320.353 391.773 320.577C392.46 320.856 393.021 321.247 393.52 321.695L393.583 321.75L393.895 322.142L433.018 369.091C434.017 370.321 434.329 371.998 433.58 373.563Z" fill="url(#paint4_linear_0_449)"/>
</g>
<g filter="url(#filter4_d_0_449)">
<path d="M554.882 327.955C554.882 332.202 551.076 335.612 546.334 335.612H510.642C505.899 335.612 502.093 332.202 502.093 327.955C502.093 323.707 505.899 320.297 510.642 320.297H546.271C551.013 320.241 554.882 323.707 554.882 327.955Z" fill="#E06881"/>
</g>
<g filter="url(#filter5_d_0_449)">
<path d="M554.882 352.826C554.882 357.074 551.076 360.484 546.334 360.484H510.642C505.899 360.484 502.093 357.074 502.093 352.826C502.093 348.579 505.899 345.169 510.642 345.169H546.271C551.013 345.169 554.882 348.579 554.882 352.826Z" fill="#E06881"/>
</g>
</g>
<circle opacity="0.2" cx="531.094" cy="300.505" r="299.7" stroke="url(#paint5_linear_0_449)" stroke-width="0.6"/>
<circle opacity="0.2" cx="531.094" cy="300.505" r="249.7" stroke="url(#paint6_linear_0_449)" stroke-width="0.6"/>
<circle opacity="0.2" cx="531.094" cy="300.505" r="274.7" stroke="url(#paint7_linear_0_449)" stroke-width="0.6"/>
<rect x="758.473" y="351.997" width="16" height="30" rx="1" transform="rotate(2.97003 758.473 351.997)" stroke="#F0F0F0" stroke-width="0.6"/>
<rect x="763.691" y="381.07" width="2.56667" height="0.1" rx="0.05" transform="rotate(2.97003 763.691 381.07)" fill="#065289" stroke="#F0F0F0" stroke-width="0.1"/>
<rect x="764.587" y="353.816" width="3.6" height="0.4" rx="0.2" transform="rotate(2.97003 764.587 353.816)" fill="#F0F0F0" stroke="#F0F0F0" stroke-width="0.4"/>
<defs>
<filter id="filter0_d_0_449" x="424.143" y="238.172" width="108.248" height="163.885" filterUnits="userSpaceOnUse" color-interpolation-filters="sRGB">
<feFlood flood-opacity="0" result="BackgroundImageFix"/>
<feColorMatrix in="SourceAlpha" type="matrix" values="0 0 0 0 0 0 0 0 0 0 0 0 0 0 0 0 0 0 127 0" result="hardAlpha"/>
<feOffset dx="1" dy="-2"/>
<feGaussianBlur stdDeviation="2"/>
<feComposite in2="hardAlpha" operator="out"/>
<feColorMatrix type="matrix" values="0 0 0 0 0 0 0 0 0 0 0 0 0 0 0 0 0 0 0.15 0"/>
<feBlend mode="normal" in2="BackgroundImageFix" result="effect1_dropShadow_0_449"/>
<feBlend mode="normal" in="SourceGraphic" in2="effect1_dropShadow_0_449" result="shape"/>
</filter>
<filter id="filter1_d_0_449" x="516.72" y="221.74" width="128.212" height="180.26" filterUnits="userSpaceOnUse" color-interpolation-filters="sRGB">
<feFlood flood-opacity="0" result="BackgroundImageFix"/>
<feColorMatrix in="SourceAlpha" type="matrix" values="0 0 0 0 0 0 0 0 0 0 0 0 0 0 0 0 0 0 127 0" result="hardAlpha"/>
<feOffset dx="1" dy="-2"/>
<feGaussianBlur stdDeviation="2"/>
<feComposite in2="hardAlpha" operator="out"/>
<feColorMatrix type="matrix" values="0 0 0 0 0 0 0 0 0 0 0 0 0 0 0 0 0 0 0.15 0"/>
<feBlend mode="normal" in2="BackgroundImageFix" result="effect1_dropShadow_0_449"/>
<feBlend mode="normal" in="SourceGraphic" in2="effect1_dropShadow_0_449" result="shape"/>
</filter>
<filter id="filter2_d_0_449" x="499.093" y="361.916" width="60.7889" height="23.3153" filterUnits="userSpaceOnUse" color-interpolation-filters="sRGB">
<feFlood flood-opacity="0" result="BackgroundImageFix"/>
<feColorMatrix in="SourceAlpha" type="matrix" values="0 0 0 0 0 0 0 0 0 0 0 0 0 0 0 0 0 0 127 0" result="hardAlpha"/>
<feOffset dx="1" dy="-2"/>
<feGaussianBlur stdDeviation="2"/>
<feComposite in2="hardAlpha" operator="out"/>
<feColorMatrix type="matrix" values="0 0 0 0 0 0 0 0 0 0 0 0 0 0 0 0 0 0 0.15 0"/>
<feBlend mode="normal" in2="BackgroundImageFix" result="effect1_dropShadow_0_449"/>
<feBlend mode="normal" in="SourceGraphic" in2="effect1_dropShadow_0_449" result="shape"/>
</filter>
<filter id="filter3_d_0_449" x="367.932" y="314.241" width="71.0624" height="73.6736" filterUnits="userSpaceOnUse" color-interpolation-filters="sRGB">
<feFlood flood-opacity="0" result="BackgroundImageFix"/>
<feColorMatrix in="SourceAlpha" type="matrix" values="0 0 0 0 0 0 0 0 0 0 0 0 0 0 0 0 0 0 127 0" result="hardAlpha"/>
<feOffset dx="1" dy="-2"/>
<feGaussianBlur stdDeviation="2"/>
<feComposite in2="hardAlpha" operator="out"/>
<feColorMatrix type="matrix" values="0 0 0 0 0 0 0 0 0 0 0 0 0 0 0 0 0 0 0.15 0"/>
<feBlend mode="normal" in2="BackgroundImageFix" result="effect1_dropShadow_0_449"/>
<feBlend mode="normal" in="SourceGraphic" in2="effect1_dropShadow_0_449" result="shape"/>
</filter>
<filter id="filter4_d_0_449" x="499.093" y="314.297" width="60.7889" height="23.3152" filterUnits="userSpaceOnUse" color-interpolation-filters="sRGB">
<feFlood flood-opacity="0" result="BackgroundImageFix"/>
<feColorMatrix in="SourceAlpha" type="matrix" values="0 0 0 0 0 0 0 0 0 0 0 0 0 0 0 0 0 0 127 0" result="hardAlpha"/>
<feOffset dx="1" dy="-2"/>
<feGaussianBlur stdDeviation="2"/>
<feComposite in2="hardAlpha" operator="out"/>
<feColorMatrix type="matrix" values="0 0 0 0 0 0 0 0 0 0 0 0 0 0 0 0 0 0 0.15 0"/>
<feBlend mode="normal" in2="BackgroundImageFix" result="effect1_dropShadow_0_449"/>
<feBlend mode="normal" in="SourceGraphic" in2="effect1_dropShadow_0_449" result="shape"/>
</filter>
<filter id="filter5_d_0_449" x="499.093" y="339.169" width="60.7889" height="23.3145" filterUnits="userSpaceOnUse" color-interpolation-filters="sRGB">
<feFlood flood-opacity="0" result="BackgroundImageFix"/>
<feColorMatrix in="SourceAlpha" type="matrix" values="0 0 0 0 0 0 0 0 0 0 0 0 0 0 0 0 0 0 127 0" result="hardAlpha"/>
<feOffset dx="1" dy="-2"/>
<feGaussianBlur stdDeviation="2"/>
<feComposite in2="hardAlpha" operator="out"/>
<feColorMatrix type="matrix" values="0 0 0 0 0 0 0 0 0 0 0 0 0 0 0 0 0 0 0.15 0"/>
<feBlend mode="normal" in2="BackgroundImageFix" result="effect1_dropShadow_0_449"/>
<feBlend mode="normal" in="SourceGraphic" in2="effect1_dropShadow_0_449" result="shape"/>
</filter>
<linearGradient id="paint0_linear_0_449" x1="224.301" y1="296.645" x2="227.936" y2="296.889" gradientUnits="userSpaceOnUse">
<stop stop-color="#4E54EA"/>
<stop offset="1" stop-color="#0B0F60"/>
</linearGradient>
<linearGradient id="paint1_linear_0_449" x1="224.413" y1="294.954" x2="226.717" y2="294.954" gradientUnits="userSpaceOnUse">
<stop stop-color="#1E999F"/>
<stop offset="1" stop-color="#065289"/>
</linearGradient>
<linearGradient id="paint2_linear_0_449" x1="427.143" y1="322.114" x2="533.865" y2="322.114" gradientUnits="userSpaceOnUse">
<stop stop-color="#1E999F"/>
<stop offset="1" stop-color="#065289"/>
</linearGradient>
<linearGradient id="paint3_linear_0_449" x1="519.72" y1="313.87" x2="647.696" y2="313.87" gradientUnits="userSpaceOnUse">
<stop stop-color="#B23AE8"/>
<stop offset="1" stop-color="#530B99"/>
</linearGradient>
<linearGradient id="paint4_linear_0_449" x1="370.932" y1="353.078" x2="438.068" y2="353.078" gradientUnits="userSpaceOnUse">
<stop stop-color="#B23AE8"/>
<stop offset="1" stop-color="#530B99"/>
</linearGradient>
<linearGradient id="paint5_linear_0_449" x1="231.094" y1="300.505" x2="869.845" y2="300.505" gradientUnits="userSpaceOnUse">
<stop stop-color="#1E999F"/>
<stop offset="1" stop-color="#065289"/>
</linearGradient>
<linearGradient id="paint6_linear_0_449" x1="281.094" y1="300.505" x2="813.387" y2="300.505" gradientUnits="userSpaceOnUse">
<stop stop-color="#4E54EA"/>
<stop offset="1" stop-color="#531E7B"/>
</linearGradient>
<linearGradient id="paint7_linear_0_449" x1="256.094" y1="300.505" x2="841.616" y2="300.505" gradientUnits="userSpaceOnUse">
<stop stop-color="#B23AE8"/>
<stop offset="1" stop-color="#530B99"/>
</linearGradient>
<clipPath id="clip0_0_449">
<rect width="269" height="172.26" fill="white" transform="translate(370.932 227.74)"/>
</clipPath>
</defs>
</svg>
